<svg width="1024pt" height="1024pt" viewBox="0 0 1024 1024" xmlns="http://www.w3.org/2000/svg"><path fill="#79ddd1" d="M436.95 120.74c32.23-5.3 65.25-4.7 97.76-2.63 29.67 2.55 58.8 9.51 87.35 17.68.79.53 1.59 1.07 2.39 1.62 3.11.37 6.08 1.4 9.08 2.27.56.57 1.14 1.15 1.72 1.72 25.85 8.2 49.83 21.44 73.29 34.88 23.85 14.76 45.61 32.68 66.15 51.72 4.55 4.9 9.56 9.33 14.19 14.15 5.33 8.16 13.55 14.04 18.6 22.38 19.08 23.08 34.71 48.83 47.42 75.94 1.58 3.68 3.79 7.11 4.86 11.01 1.87 5.03 5.58 9.66 5.75 15.12.64.71 1.29 1.41 1.95 2.12-.02 1-.02 2.01-.02 3.01.47.37 1.43 1.11 1.9 1.48.05 1.05.1 2.11.16 3.17 10.03 25.31 15.44 52.59 19.87 79.49 7.09 59.26 1.65 120.1-17.62 176.65-1.68 6.88-4.7 13.34-6.74 20.12-.36.42-1.07 1.28-1.43 1.7-.4 3.67-2.19 6.94-3.84 10.17-1.59 5.61-5.17 10.39-6.82 15.98-5.04 8.71-8.83 18.21-13.86 26.96-.39.28-1.17.83-1.56 1.11-.06.58-.1 1.18-.13 1.78-2.3 2.53-3.43 5.85-5.63 8.47-7.65 12.72-15.97 25.34-26.34 35.99.05.44.12.9.2 1.37-27.85 31.53-57.96 61.48-93.51 84.31-.71-.07-2.12-.22-2.83-.29.02.61.05 1.82.07 2.42-9.83 5.76-19.61 11.76-29.24 17.81-.54-.02-1.64-.06-2.19-.07-7.71 5.96-17.42 8.84-25.84 13.73-5.03 1.07-9.45 3.92-14.07 6.05a14.4 14.4 0 0 0-5.91 2.24c-.84.05-1.67.09-2.48.16-1.48 1.13-3.2 1.82-5.01 2.17-24.74 9-50.43 15.49-76.58 18.5-25.35 4.34-51.28 3.35-77 3.15-16.29-2.21-33.59-1.36-48.9-7.57-31.04-9.83-49.01-48.59-34.93-78.35 5.97-10.94 12.21-21.78 19.41-31.95.03-.54.08-1.61.11-2.14 3.83-2.64 4.91-7.36 7.61-10.91 13.13-20.03 25.12-40.78 38.1-60.9.05-.73.09-1.44.15-2.15.41-.26 1.24-.78 1.65-1.05 17.94-28.09 35.63-56.32 53.05-84.73 12.89-19.35 24.51-39.49 37.48-58.8 10.98-17.62 21.58-35.51 33.9-52.28.45-.2 1.36-.6 1.81-.8 4.41-7.23 12.95-9.91 19.35-14.92 6.04-1.2 11.66-4.21 17.94-4.44 10.73-2.05 21.55.76 31.59 4.47 10.97 5.89 21.2 13.68 27.53 24.6 1.17 2.8 2.6 5.49 4.12 8.13 4.67 13.18 7.37 28.04 2.21 41.52-4.3 15.96-15.1 28.83-23.37 42.78-4.82 7.55-9.41 15.21-14.28 22.73l-.36 1.98c-10.88 14.34-19.4 30.47-29.61 45.28-.11.44-.32 1.3-.43 1.73-6.52 9.35-12.2 19.27-18.41 28.84-5.02 7.76-10.16 15.46-14.8 23.47-5.8 8.41-10.76 17.38-16.05 26.09-2.73 4.92-6.56 9.17-8.84 14.34-1.76 1.76-3.15 3.82-3.26 6.4 19.2-1.25 36.87-9.97 54.68-16.45 6.42-3.4 13.35-5.83 19.56-9.61.52-.01 1.58-.01 2.11-.02 2.79-2.98 7.03-3.98 10.43-6.15 33.04-18.82 61.7-44.97 84.67-75.22 9.2-13.97 18.76-27.72 26.29-42.68 7.39-15.28 13.6-31.16 18.41-47.43 1.12-3.56 3.24-7.01 2.34-10.88.37.1 1.09.3 1.46.4 4.26-21.67 8.28-43.51 8.94-65.71.44-42.28-7.99-84.51-24.32-123.45-7.44-13.95-13.37-29.03-23.72-41.16-.08-.66-.15-1.32-.2-1.97-15.88-21.61-33.34-42.93-55.22-58.66-.25-.43-.75-1.28-1-1.71-6.41-3.93-11.73-9.62-18.48-12.97-6.57-5.47-14.46-8.84-21.58-13.41-.54-.08-1.06-.16-1.58-.24l-1.9-2.02c-.53-.05-1.58-.14-2.11-.19-5.26-3.56-11.09-6.16-17.07-8.27-2.87-1.74-5.97-3.09-9.25-3.82-.39-.37-1.16-1.13-1.55-1.51-23.89-8.28-48.44-15.63-73.68-18.16-19.46-3.55-39.35-1.42-59.01-1.95-27.31 2.95-54.43 7.54-80.02 17.9-.53-.01-1.59-.03-2.12-.05-7.23 4.67-16.58 6.76-23.83 11.98l-2.51.04c-13.96 9.44-29.34 16.92-42.18 28.05-3.64 3.03-7.38 5.95-11.33 8.57-5.02 6.86-12.95 11.03-17.68 18.27-18.6 18.81-34.37 40.27-47.35 63.26-3.21 4.47-4.62 10.08-7.52 14.45-.01.5-.02 1.5-.03 2-5.34 7.13-7.67 16.87-15.43 22.07-4.24 5.25-10.68 7.64-16.07 11.4h-3.45c-.79.63-1.57 1.27-2.36 1.9-13.67 2-28.58 1.57-40.71-5.77-.52-.08-1.56-.23-2.08-.31-3.97-4.64-9.92-7.08-13.4-12.25-4.63-3.96-6.13-10.02-9.46-14.9l.24-2.66c-.68-1.11-1.35-2.21-2.03-3.3-.13-6.72-2.24-13.4-.86-20.1.45-10.04 5.38-19 9.16-28.08 1.89-4.29 4.81-8.06 6.19-12.58 1.68-2.04 3.12-4.31 3.84-6.88 28.31-49.78 66.67-94.18 112.88-128.27 5.13-3.78 10.8-6.89 15.39-11.38.55-.09 1.64-.28 2.18-.37 18.43-12.41 38.52-22.03 58.56-31.55 2.84-.78 5.65-1.7 8.45-2.64 28.08-11.96 58.26-18.75 88.48-22.54"/><path fill="#10b0ea" d="M432.32 344.48c25.4-3.95 52.71 11.68 60.9 36.29 2.03 8.53 2.72 17.3 3.4 26.02-.76 15.57-10.89 28.3-18.86 40.97-65.75 104.17-132.64 207.6-198.04 311.98-7.68 13.57-20.55 24.46-35.9 28.06-29.41 9.29-63.92-10.64-70.98-40.63-2.89-14.2-1.57-29.65 5.91-42.34 40.56-64.65 82.61-128.36 122.9-193.18 30.13-46.62 59.37-93.79 89.63-140.32 9.01-14.39 24.22-24.39 41.04-26.85"/></svg>